<svg width="25" height="24" viewBox="0 0 16 15" fill="none" xmlns="http://www.w3.org/2000/svg">
<path d="M0 1.5C0 1.23478 0.105357 0.98043 0.292893 0.792893C0.48043 0.605357 0.734784 0.5 1 0.5H15C15.2652 0.5 15.5196 0.605357 15.7071 0.792893C15.8946 0.98043 16 1.23478 16 1.5C16 1.76522 15.8946 2.01957 15.7071 2.20711C15.5196 2.39464 15.2652 2.5 15 2.5H1C0.734784 2.5 0.48043 2.39464 0.292893 2.20711C0.105357 2.01957 0 1.76522 0 1.5ZM0 13.5C0 13.2348 0.105357 12.9804 0.292893 12.7929C0.48043 12.6054 0.734784 12.5 1 12.5H15C15.2652 12.5 15.5196 12.6054 15.7071 12.7929C15.8946 12.9804 16 13.2348 16 13.5C16 13.7652 15.8946 14.0196 15.7071 14.2071C15.5196 14.3946 15.2652 14.5 15 14.5H1C0.734784 14.5 0.48043 14.3946 0.292893 14.2071C0.105357 14.0196 0 13.7652 0 13.5ZM7 6.5C6.73478 6.5 6.48043 6.60536 6.29289 6.79289C6.10536 6.98043 6 7.23478 6 7.5C6 7.76522 6.10536 8.01957 6.29289 8.20711C6.48043 8.39464 6.73478 8.5 7 8.5H15C15.2652 8.5 15.5196 8.39464 15.7071 8.20711C15.8946 8.01957 16 7.76522 16 7.5C16 7.23478 15.8946 6.98043 15.7071 6.79289C15.5196 6.60536 15.2652 6.5 15 6.5H7Z" fill="white"/>
</svg>
